Coordinates
version=1
nRows=11
nColumns=40
inDegrees=yes

Units are S.I. units (second, meters, Newtons, ...)
If the header above contains a line with 'inDegrees', this indicates whether rotational values are in degrees (yes) or radians (no).

endheader
time	pelvis_tilt	pelvis_list	pelvis_rotation	pelvis_tx	pelvis_ty	pelvis_tz	hip_flexion_r	hip_adduction_r	hip_rotation_r	knee_angle_r	knee_angle_r_beta	ankle_angle_r	subtalar_angle_r	mtp_angle_r	hip_flexion_l	hip_adduction_l	hip_rotation_l	knee_angle_l	knee_angle_l_beta	ankle_angle_l	subtalar_angle_l	mtp_angle_l	lumbar_extension	lumbar_bending	lumbar_rotation	arm_flex_r	arm_add_r	arm_rot_r	elbow_flex_r	pro_sup_r	wrist_flex_r	wrist_dev_r	arm_flex_l	arm_add_l	arm_rot_l	elbow_flex_l	pro_sup_l	wrist_flex_l	wrist_dev_l
      3.72500000	    -24.46424088	      3.66127755	     -5.35820957	     -0.30309954	      0.88791655	     -1.04356866	     20.94373881	     -4.73808414	     -8.90424551	    106.98696855	      1.86727486	    -17.20482069	      0.00000000	      0.00000000	     63.05046431	     -1.64388254	    -14.09968864	     65.96705006	      1.15134222	     23.13579016	      0.00000000	      0.00000000	      3.57364564	     -8.67029708	      1.90167545	     89.92299347	    -11.33776959	     26.41076836	     39.28719912	     86.15949557	      0.00000000	      0.00000000	     89.93740831	    -20.36700390	     23.65796439	     42.22188597	     85.42555392	      0.00000000	      0.00000000
      3.73000000	    -24.56661544	      3.68180529	     -5.33233078	     -0.30330678	      0.88666757	     -1.04340333	     20.86334715	     -4.70962159	     -8.99095217	    106.93839875	      1.86642715	    -17.35593969	      0.00000000	      0.00000000	     63.28587410	     -1.70726501	    -14.16510653	     66.17398541	      1.15495392	     22.96575520	      0.00000000	      0.00000000	      3.58296967	     -8.72061984	      1.87763820	     89.92341229	    -11.31917407	     26.33662559	     39.29050758	     86.00680415	      0.00000000	      0.00000000	     89.93770236	    -20.32898901	     23.58433042	     42.28128177	     85.44397746	      0.00000000	      0.00000000
      3.73500000	    -24.53440023	      3.95350029	     -5.27719458	     -0.30371427	      0.88630552	     -1.04350701	     20.70120784	     -5.00396526	     -8.96479968	    106.90615286	      1.86586436	    -17.37035660	      0.00000000	      0.00000000	     63.26099387	     -1.54829566	    -14.48418527	     66.12756602	      1.15414375	     22.93906784	      0.00000000	      0.00000000	      3.38611374	     -9.05920128	      1.82465586	     89.92354564	    -11.31762159	     26.15103843	     39.37562531	     86.16778829	      0.00000000	      0.00000000	     89.93828581	    -20.30311058	     23.39159558	     42.42923068	     85.30952634	      0.00000000	      0.00000000
      3.74000000	    -24.89432316	      3.84520187	     -5.10584669	     -0.30456612	      0.88473911	     -1.04347081	     20.86982736	     -4.81330996	     -9.20758520	    106.91832174	      1.86607675	    -17.11540983	      0.00000000	      0.00000000	     63.86684977	     -1.58345766	    -14.30739085	     66.41365422	      1.15913693	     22.97004000	      0.00000000	      0.00000000	      3.64659113	     -8.95982148	      1.58307609	     89.92542136	    -11.01019591	     26.40080533	     39.04195096	     81.07545284	      0.00000000	      0.00000000	     89.93794641	    -20.19088751	     23.41118165	     42.31869560	     80.28930382	      0.00000000	      0.00000000
      3.74500000	    -25.15769053	      3.62953696	     -4.99206652	     -0.30526013	      0.88350963	     -1.04331655	     21.02380043	     -4.49316727	     -9.41860079	    106.82810513	      1.86450217	    -17.56473772	      0.00000000	      0.00000000	     64.32322576	     -1.71756221	    -14.07866869	     66.65317652	      1.16331739	     23.12120006	      0.00000000	      0.00000000	      3.72607270	     -8.74777924	      1.54844033	     89.92464523	    -11.33771579	     26.01324439	     39.44231011	     86.15887177	      0.00000000	      0.00000000	     89.93871055	    -20.23726415	     23.19492055	     42.59235359	     85.28840730	      0.00000000	      0.00000000
      3.75000000	    -25.39990959	      3.51202464	     -4.85967982	     -0.30591049	      0.88225218	     -1.04334516	     21.09591865	     -4.29108356	     -9.56401608	    106.81276987	      1.86423452	    -17.46347904	      0.00000000	      0.00000000	     64.75649101	     -1.72225386	    -13.87185644	     66.85862420	      1.16690313	     23.14671818	      0.00000000	      0.00000000	      3.81653963	     -8.62410991	      1.42138315	     89.92547477	    -11.35591481	     25.94720758	     39.55391885	     86.04053865	      0.00000000	      0.00000000	     89.93922017	    -20.22213952	     23.12721877	     42.66684385	     85.30899295	      0.00000000	      0.00000000
      3.75500000	    -25.32297375	      3.89259705	     -4.97129708	     -0.30583177	      0.88150369	     -1.04323081	     20.88116449	     -4.68511730	     -9.38661902	    106.79901728	      1.86399449	    -17.58584924	      0.00000000	      0.00000000	     64.68174644	     -1.63871914	    -14.32208997	     66.93755737	      1.16828077	     23.27116087	      0.00000000	      0.00000000	      3.67534312	     -9.06417730	      1.53984984	     89.92553168	    -11.32255472	     25.79510278	     39.54682379	     86.10212477	      0.00000000	      0.00000000	     89.93944554	    -20.19448331	     22.97076331	     42.76622944	     85.37328573	      0.00000000	      0.00000000
      3.76000000	    -25.33054893	      4.01437916	     -4.94460030	     -0.30606140	      0.88090606	     -1.04311988	     20.71964360	     -4.79109616	     -9.41867335	    106.73250085	      1.86283356	    -17.62820266	      0.00000000	      0.00000000	     64.73154044	     -1.60975880	    -14.50377755	     66.98622295	      1.16913014	     23.32140144	      0.00000000	      0.00000000	      3.54298405	     -9.23373445	      1.50594322	     89.92589309	    -11.29990987	     25.67628771	     39.58587235	     86.08727860	      0.00000000	      0.00000000	     89.93982020	    -20.17127877	     22.83334166	     42.88829959	     85.40558773	      0.00000000	      0.00000000
      3.76500000	    -25.73036838	      3.74211297	     -4.70088889	     -0.30717365	      0.87961882	     -1.04322969	     20.97978446	     -4.43055530	     -9.73574092	    106.71009240	      1.86244246	    -17.45317364	      0.00000000	      0.00000000	     65.39740479	     -1.61427132	    -14.05833313	     67.20568854	      1.17296054	     23.11662279	      0.00000000	      0.00000000	      3.76209768	     -8.95639491	      1.32473794	     89.92658146	    -11.43438359	     25.71473152	     39.67194366	     86.03911845	      0.00000000	      0.00000000	     89.94040259	    -20.08153694	     22.92724534	     42.89447969	     85.34507271	      0.00000000	      0.00000000
      3.77000000	    -25.85209201	      3.77111570	     -4.71461967	     -0.30744089	      0.87845737	     -1.04301339	     20.95943914	     -4.40153636	     -9.75693364	    106.67593683	      1.86184633	    -17.70168631	      0.00000000	      0.00000000	     65.63290035	     -1.68827290	    -14.13661525	     67.40444193	      1.17642944	     23.31014141	      0.00000000	      0.00000000	      3.78792289	     -8.99189592	      1.30530288	     89.92688002	    -11.33825577	     25.49313241	     39.67945894	     86.07457520	      0.00000000	      0.00000000	     89.94036046	    -20.12351723	     22.74673182	     42.98915499	     85.45692193	      0.00000000	      0.00000000
      3.77500000	    -25.98148244	      3.85163226	     -4.68944986	     -0.30789126	      0.87751168	     -1.04286851	     20.95596908	     -4.42085998	     -9.75231120	    106.68885042	      1.86207171	    -17.59256479	      0.00000000	      0.00000000	     65.87628662	     -1.68843132	    -14.22784544	     67.54815430	      1.17893770	     23.35908382	      0.00000000	      0.00000000	      3.79677870	     -9.09894497	      1.25847165	     89.92715919	    -11.27930818	     25.34076719	     39.73319100	     85.99466072	      0.00000000	      0.00000000	     89.94072064	    -20.10611300	     22.60463441	     43.04063825	     85.40079035	      0.00000000	      0.00000000
